<svg xmlns="http://www.w3.org/2000/svg" viewBox="0 0 162 116">
  <path fill="#2F2E41" d="M31.7 19.5a5.6 5.6 0 100-11.3 5.6 5.6 0 000 11.3zM14.5 81.7l3.5-12 1.2.4s-1.4 9-3.6 11.2l-1 .4z"/>
  <path fill="#FFB9B9" d="M27.8 17.2s.4 4.7-.6 6c-1 1.4.6 4 .6 4l3.1 3.7 4.6-2.1.7-3.8-.5-2.7s-1.5-1.5-.8-4.3c.6-2.8-7.1-.8-7.1-.8z"/>
  <path fill="#000000" d="M27.8 17.2s.4 4.7-.6 6c-1 1.4.6 4 .6 4l3.1 3.7 4.6-2.1.7-3.8-.5-2.7s-1.5-1.5-.8-4.3c.6-2.8-7.1-.8-7.1-.8z" opacity=".1"/>
  <path fill="#FFB9B9" d="M30.4 105.4v3l4 .9-.3-5-3.7 1.1zM42.6 104.2l-.9 4.2 1.8 1.3 3.1-2.3-.4-3.6-3.6.4z"/>
  <path fill="#2F2E41" d="M34.9 108.9s-1.6-2.6-4.5-1c0 0-.5 2.9-1 3.1-.5.2-3.4 4.4 0 4.8 3.4.4 5-.7 5-.7s-.6.5.5.2c1-.2.5-1.9.5-1.9L35 109zM45 107.1s-2.3 1.6-2.7.9c-.4-.7-1-.7-1-.7s-2 7.8-.7 8.2c.9.2 1.8.1 2.6-.2 0 0 1.8-1.2 1.8-.2s5 .9 7 .8c2 0 1-1.6 1-1.6l-2.8-2.7-3-4.5s-1.5-1.2-2.2 0zM23.2 57.8l3 29.7s1.8 18.1 2 18.4c.4.3 2.3 1.3 6.5 0l-1-23.7 1.8-14.7 4 10.1s1 27.4 1.7 27.4 4.7 1.3 5.7-.3.8-19.1.8-19.1S47.3 58 44 57.2c-3.2-1-20.8.6-20.8.6z"/>
  <path fill="#FFB9B9" d="M31.7 20a5 5 0 100-10.2 5 5 0 000 10.2z"/>
  <path fill="#575A89" d="M32 29l-.5-3.7c0-.6-2.3-1-2.3-1s-1.7-2-2.1-1.7l-6.9 4.6c-.9.5-1.8 2.7-1.8 2.9l4.7 9.7s2 5.9.6 9c-1.4 3-3.2 9.2-.6 10.4 2.6 1.3 15.2 4 17.4 1.6 2.3-2.3 4-3 4.6-3 .5 0-2.5-10.2-1.8-11.2.6-1-.3-6.9-.3-6.9l3.4-9.5s-.3-5.3-7-6.5l-4-2L32 29z"/>
  <path fill="#FFB9B9" d="M18.2 59.2l-.3 4.5c0 1-1.8 7 .8 7.8 2.6.8 2.3-8 2.3-8V59l-2.8.2zM48.9 55.8s.4 3.4.2 4.2c-.2.7 2.2 7.1-1 7.5-3.2.3-2.4-7.7-2.4-7.7v-4H49z"/>
  <path fill="#2F2E41" d="M17.6 80.5l2.1-11.3h.7a4.5 4.5 0 01.6 4.2c-.9 2.6-1.6 7.1-1.6 7.1h-1.8z"/>
  <path fill="#575A89" d="M19.6 29.2l-1.2.9s-1.4 23.4-1 25.1c.3 1.8-1.4 4.3 0 4.5 1.6.3 3.3 1.2 4.1.6.9-.6 1-2.7 1.3-3.2.3-.5.8-6.6.8-6.6s1.6-6.2.6-10.7l-1.8-9.2-2.8-1.4zM43 27.3l3.4 2.9 2.6 15s1.6 11.7.3 11.9c-1.2.1-3.1-.2-4 0-.8.2-1.4-.4-1.4-.4l-1-4.8-.5-5.4-.7-6 1-6.7.3-6.5z"/>
  <path fill="#3F3D56" d="M27 96.9l-1.2 3.2a732.1 732.1 0 01-3.7 10c-.8 1.9-15.6-1-16.8-1.8-1.2-.7-1.5-3.2-1.6-6.8 0-.8.1-1.8.4-3a45.2 45.2 0 011.5-5l3-8.2s2.9-2 4-3.3c1-1.3 6.7-2.4 6.7-2.4 1.6.1 5.3 6.4 6.8 8.3 1.4 1.9.8 9 .8 9z"/>
  <path fill="#2F2E41" d="M18.7 85.7a.7.7 0 100-1.4.7.7 0 000 1.4zM19.7 86.1a.4.4 0 100-.7.4.4 0 000 .7z"/>
  <path fill="#F2F2F2" d="M25.8 100.1l-1 2.9-20.1-6.6c.2-.9.5-1.9.9-2.8l20.2 6.5zM24.1 105l-1 2.7-19.4-6.2c0-.8.1-1.8.4-3l20 6.4z"/>
  <path stroke="#2F2E41" stroke-miterlimit="10" stroke-width="3" d="M18.7 85.2s1.4 6.4.6 12.2a19.2 19.2 0 002.2 11.1"/>
  <path stroke="#2F2E41" stroke-miterlimit="10" stroke-width="3" d="M19.7 85.7s-2.9 10.4-3 12c0 1.4-1.2 12-2.7 13"/>
  <path fill="#2F2E41" d="M27.8 11.8s-1.1-3 .6-4l.4 1.3s4.2-2.5 5.3-2l-1 1.5s4.9 0 5.2 1.8l-1.7.1s1.9 1.2 2 3.2l-3.8.2 1.8 1s-6.7 1-8.3-1.7l-.5-1.4z"/>
  <path fill="#2F2E41" d="M26.8 11.9s1.4 2.6 3.1 2c1.8-.7 0-3.1 0-3.1l-1.1-.6-2 1.7z"/>
  <path fill="#F2F2F2" d="M141.6 53.7l-24.2-30a8.1 8.1 0 01-3.9 2c-4.5.8-9-2.3-9.9-7a8.7 8.7 0 013-8.5L98.5 0 51.6 40l43.1 53.7 46.9-40z"/>
  <path fill="#F2F2F2" d="M111.6 24.2a6.8 6.8 0 100-13.6 6.8 6.8 0 000 13.6z"/>
  <path fill="#F9A826" d="M69 47.6L67 50l7 6 2-2.3-7-6zM114.1 90.6l-2 2.4 6.1 5.3 2.1-2.4-6.2-5.3z"/>
  <path fill="#3F3D56" d="M125.3 72.7V74.3a31 31 0 01-31 29.5A31.3 31.3 0 0163 72.7a30.9 30.9 0 0128.3-31 31.3 31.3 0 0134.1 31z"/>
  <path fill="#F9A826" d="M94.1 107.7a35.1 35.1 0 01-25.7-58.8l.8.7a34 34 0 0049.4 46.7l.7.8a34.8 34.8 0 01-25.2 10.6z"/>
  <path fill="#F9A826" d="M99.2 107h-8.9v8.8h9V107zM69.6 53.5c.2.1 0 .4 0 .6 0 .3.4.4.7.4.3 0 .7.2.5.5-.7.2-1.4 0-2.1-.3a30.9 30.9 0 00-5.7 20h.2c.2.2.5.2.7.3l.4.3c.4.2 1-.2 1.4 0l.3.4c.4.3 1 0 1.5.3.3.2.4.5.6.8.4.7 1 1.4 1.8 1.5h.8c.2 0 .5.3.4.5 0 .5.2 1 .1 1.4-.1.8-1.2 1.1-1.3 2v.4l-.3.6c-.1.4.2.8.5 1l.8 1c.2.3.1.8.2 1.2 0 1 .9 1.6 1.7 2l.7.5.3 1.1c.1 1 .9 1.7 1 2.6 0 .6-.4 1.2-.6 1.8-.3.7-.3 1.3-.2 2 1.2 1 2.5 2 3.8 2.8l.2-.4a.7.7 0 00-.4-.7c.3 0 .5-.2.7-.4a.6.6 0 000-.6c.4 0 .9 0 1.1-.3.2-.2.2-.5.1-.8l-.2-.9H82c-.1-.5-.4-.9-.8-1 .4-.1.8-.6.9-1V92v-.4l.3-.3a1273.7 1273.7 0 012.2-1.3c.3-.2.2-.6.1-.9 0-.3-.3-.5-.3-.9-.1-.9.9-1.5 1.2-2.4l.2-1c0-.5 0-1-.3-1.2l-1-.4-.7-.8-1-.1c-.5-.1-.8-.8-1.4-.8h-.9c-.2-.2-.2-.5-.2-.8a2 2 0 00-1.7-1.7c-.4 0-.7 0-1-.2-.3-.2-.4-.5-.6-.8-.4-.4-.9-.5-1.4-.6l-2.1-.5c-.4-.1-.9-.2-1 .2l-.2.4a1.2 1.2 0 01-1.1.8c-.2-.3-.5-.5-.8-.6a5 5 0 01-.7-.2.9.9 0 01-.4-1.2 1.1 1.1 0 00-.2-1.4c-.3-.3-.8-.4-1.3-.3-.1-.3 0-.6.3-.8.2-.2.5-.4.5-.7.1-.5-.5-.8-1-.7-.4.2-.7.6-.9 1 0 .3-.2.5-.3.8a.7.7 0 01-.7.2c-.4 0-.6-.5-.6-.9a6 6 0 01-.2-1.5c0-.5.2-1 .5-1.4.7-.5 1.6-.5 2.4-.4a.6.6 0 01.1-.8 1 1 0 01.8-.2c.3 0 .5.2.7.4l.5 1c.1.3.5.6.9.4.3-.1.3-.5.2-.8l-.2-1c0-.6.7-1 1.3-1.2.6-.3 1.2-.6 1.3-1.2v-.4l.3-.2c1.6-1 3.3-2.2 5.2-2.8h.2c.1 0 0-.3 0-.4-.2 0-.4-.1-.4-.3v-.3a.4.4 0 00-.3-.5H78c-.2-.2.1-.4.3-.5a10.6 10.6 0 012.5-.3.3.3 0 010 .4l-.3.3a1 1 0 00-.2 1c.4.2.8.4 1.2.3.4 0 .8-.6.6-1-.2-.3-.7-.4-.8-.8-.1-.5.5-.9.4-1.3l-.5-.5a1.3 1.3 0 01-.2-1.4 1.6 1.6 0 01-1.4-.4c-.3-.3-.6-.9-1-.8-.5 0-.9.5-1.3.3h-.3a.2.2 0 000 .1c-.2.5 0 1-.3 1.5s-1 .5-1.3 1l-.4.7c-.2.2-.6.4-.8.2a1 1 0 00-.3-1.3l-.6-.3c-.3 0-.5-.2-.7-.4a.7.7 0 01-.3-.2V58a1.8 1.8 0 011.5-1.2c.2 0 .6 0 .8-.2l.2-.3h.3l1 .4h.4a.3.3 0 00.3-.2c0-.2-.3-.3-.3-.5V56a3.7 3.7 0 013-1.2c.2.2 0 .5-.2.7-.2.2-.3.5-.1.6l.3.1.7.2 1 .5.1-.6a.5.5 0 01.6-.3c.2 0 .3.3.5.3.3 0 .4-.4.3-.6-.1-.3-.4-.5-.4-.8l-.1-.6H82l-4-.8c-.2 0-.6 0-.6.2s.1.3 0 .4c0 .2-.2.1-.3.2a.5.5 0 00-.3.5l.2.6c-.2 0-.6 0-.9-.2a3.5 3.5 0 00-.2-1 .3.3 0 00-.4-.1l-1 .1-.3.1v.6a.5.5 0 01-.4.5h-.6l-1.5-.3c.4-.1.8-.4 1.1-.7.2-.2.3-.7 0-.8h-.2c-.7 0-1.2-.5-1.8-.7l-.6-.2-.7.9zM125.3 74.3a.8.8 0 01-.7.3c-.6 0-.9-1-1.6-1.1h-.1l-.2.3c0 .5 0 1 .2 1.6.3.7 1.1 1.3 1 2.1-1-.4-1.4-1.4-1.6-2.4-.3-1-.3-2-.7-3-.3.4-.9.1-1.2-.3l-.6-1.1c-.3-.4-.6-.8-1-.8-.6 0-1 .3-1.3.6l-.8.9c-.3.5-.2 1.1-.2 1.7 0 .6-.2 1.2-.6 1.7-.4.4-1.2.6-1.6.2l-.5-.9c-.5-1.4-.9-2.9-1.2-4.4-.1.3-.4.8-.7.6l-.1-.2c-.6-1-1.6-1.5-2.6-1.8l-3-.8-1.6-.8a1.2 1.2 0 00-.1 1.3 1 1 0 001.1.4c.3 0 .4-.2.7-.3.2 0 .5 0 .6.2v.7c.1.3.6.3.8.6a.6.6 0 01-.2.7l-.6.4c-.8.4-1.3 1-1.9 1.6-.6.5-1.5.9-2.2.5.1-.9-1-1.5-1.1-2.4 0-.3 0-.6-.2-.9 0-.4-.5-.7-.8-1a4 4 0 01-1-2.9v-1c-.1-.4-.4-.8-.8-.8-.8 0-1.9.1-2.3-.6-.2-.3-.3-.6 0-.8a.8.8 0 01.6-.1l1.9.2c.4 0 .9 0 1.3-.2s.5-.8.2-1.1c-.3-.2-.8-.2-.8-.5s.2-.6 0-.8c0-.2-.3-.1-.5 0l-.4.4c-.3.1-.7 0-1-.1-.3-.1-.8-.1-1 .2-.1.3.2.8 0 1.1-.2.4-1 .2-1.3.6-.4.4.3 1 .1 1.6a1 1 0 01-1 0 1 1 0 01-.4-1V62a604 604 0 00-2.3-1.4c-.1.3.1.7.4 1 .2.2.6.3.8.7a1 1 0 01-.4 1.2.2.2 0 01-.2 0 .3.3 0 01-.1-.1 4 4 0 00-1.6-2c-.8-.5-1.9-.4-2.4.3l-.3.6c-.6 1-1.8 1.4-3 1.4l-.2-.1c-.2-.1-.2-.4-.2-.6l.1-1 .2-.5c.2-.1.5 0 .8 0a1 1 0 001-.7 1.1 1.1 0 00-.4-1.1c-.1-.1-.3-.3-.2-.4a.3.3 0 01.2-.2l1.5-.3c.4-.2.9-.5 1-1 0-.2 0-.3.2-.4h.2a1 1 0 00.9-1.1c.2-.2.5 0 .7.1l.7.5c.5.1 1-.3 1.5-.3h.7l.4-.5c.2-.1.5-.2.6 0l-.1-1a1.8 1.8 0 001.5-.2l-1.6-.6h-.2c-.1-.2 0-.4.1-.5.2-.4.3-1-.1-1-.3-.2-.5 0-.8 0l-1.2.7c0 .2.3.4.4.5a.7.7 0 01-.4 1.2.8.8 0 01.1.7 802.3 802.3 0 01-1 0v-.3a.7.7 0 00-.7-.5 2 2 0 00-.8 0h-.3l-.2-.1a.9.9 0 01.2-.9l.7-.6c.5-.4 1-1 1.2-1.8l1.3-.6 1-.3h2.6l1.3.1c.4.2.7.5.8 1a.3.3 0 01-.1.2h-.2l-1 .2c.3.3.6.6 1 .6.6.1 1-.6 1.4-1.2a.6.6 0 00.6.6l.4-.2a9 9 0 014.3-1.1.5.5 0 01.3-.5c.3 0 .6.2.8.5l.4.8c.3.2.7.1.8-.1 0-.3-.2-.6-.5-.7-.2-.2-.5-.5-.3-.8a21.9 21.9 0 014.4-.7.5.5 0 00.3-.5 1.4 1.4 0 01-1.5-.6 13 13 0 014 .1l1 1c-.1.2-.4.4-.3.6a.5.5 0 00.4.1h.8a31 31 0 019.5 19.9c-.4 0-.8.5-.8 1 0 .6.5 1 .8 1.5l.1.3v1.4z"/>
  <path stroke="#3F3D56" stroke-miterlimit="10" stroke-width="2" d="M0 115.8h162M66.8 14.6a2.7 2.7 0 100-5.4 2.7 2.7 0 000 5.4zM146.4 65.6a2.7 2.7 0 100-5.3 2.7 2.7 0 000 5.3zM128 39a2.7 2.7 0 100-5.5 2.7 2.7 0 000 5.4z"/>
  <path fill="#3F3D56" d="M110.3 62a3 3 0 100-6.1 3 3 0 000 6z"/>
  <path fill="#ffffff" d="M120 53.2a4 4 0 100-8 4 4 0 000 8z"/>
  <path fill="#57B894" d="M124 45.1a5.6 5.6 0 00-7.9.1c-2.2 2.2-5.3 13.4-5.3 13.4s11.2-3.3 13.4-5.6a5.6 5.6 0 00-.1-7.9zm-5.8 6a2.6 2.6 0 013.3-4 2.6 2.6 0 11-3.3 4z"/>
</svg>